# xmcd
#
# Track frame offsets:
# 150
# 10285
# 20800
# 31802
# 43272
# 55055
# 64867
# 75445
# 85875
# 97727
# 109430
# 121430
# 135400
# 147832
# 160240
# 173252
#
# Disc length: 2460 seconds
#
#
# Revision: 0
# Processed by: cddbd v1.5.2PL0 Copyright (c) Steve Scherf et al.
# Submitted via: FreeRIP 2.951 
#
DISCID=c7099a10
DTITLE=The Drifters - The very best of
DYEAR=1993
DGENRE=R&B
TTITLE0=There goes my baby
TTITLE1=[If you cry] True love true love
TTITLE2=Dance with me
TTITLE3=This magic moment
TTITLE4=Save the last dance for me
TTITLE5=I count the tears
TTITLE6=Some kind of wonderful
TTITLE7=Please stay
TTITLE8=Sweets for my sweet
TTITLE9=When my little girl is smiling
TTITLE10=Up on the roof
TTITLE11=On Broadway
TTITLE12=I'll take you home
TTITLE13=Under the boardwalk
TTITLE14=I've got sand in my shoes
TTITLE15=Saturday night at the movies
EXTD=
EXTT0=
EXTT1=
EXTT2=
EXTT3=
EXTT4=
EXTT5=
EXTT6=
EXTT7=
EXTT8=
EXTT9=
EXTT10=
EXTT11=
EXTT12=
EXTT13=
EXTT14=
EXTT15=
PLAYORDER=
